# xmcd
#
# Track frame offsets: 
#        150
#        12962
#        28417
#        47081
#        66187
#        80769
#        99799
#        114518
#        132132
#        155359
#        171971
#        194927
#        214099
#        228534
#        244790
#        263997
#        279918
#        304793
#        322554
#        339539
#
# Disc length: 4758 seconds
#
# Revision: 0
# Processed by: cddbd v1.5.2PL0 Copyright (c) Steve Scherf et al.
# Submitted via: ExactAudioCopy v0.95b4
#
DISCID=1a129414
DTITLE=Various Artist - Лучшие Песни Радио "ШАНСОН" 3
DYEAR=2007
DGENRE=Chanson
TTITLE0=Mr.Credo/Мимоза
TTITLE1=Кабриолет/Береги Любовь
TTITLE2=Михайлов Стас/Прости
TTITLE3=Фулат/Милая
TTITLE4=Трофим/Московская Песня
TTITLE5=Кемеровский Евгений/Моя Сибирь
TTITLE6=Медяник Слава/Лодочка
TTITLE7=Бажиновский Владимир/Тополиная Метель
TTITLE8=Бутырка/Зеркалом Блестит Река
TTITLE9=Брянцев Алексей/Ты
TTITLE10=Бумер/Белые Метели
TTITLE11=Шапиро Александр/Женщина Любимая
TTITLE12=Бандера Андрей/А Помнишь?
TTITLE13=Захаров Владимир/Золото Тоже Тускнет
TTITLE14=Корж Игорь/Встреча Случайная
TTITLE15=Алябин Олег/Родительский Дом
TTITLE16=Кабриолет/Боже, Боже
TTITLE17=Круг Ирина/Две Струны (& Стельмах Ольга)
TTITLE18=Королёв Виктор/Дольки Апельсина
TTITLE19=Бажиновский Владимир/Свадьба
EXTD=
EXTT0=
EXTT1=
EXTT2=
EXTT3=
EXTT4=
EXTT5=
EXTT6=
EXTT7=
EXTT8=
EXTT9=
EXTT10=
EXTT11=
EXTT12=
EXTT13=
EXTT14=
EXTT15=
EXTT16=
EXTT17=
EXTT18=
EXTT19=
PLAYORDER=
